<?xml version="1.0" encoding="UTF-8"?>
<svg id="Layer_1" data-name="Layer 1" xmlns="http://www.w3.org/2000/svg" viewBox="0 0 303.72 318.87">
  <defs>
    <style>
      .cls-1 {
        fill: #fff;
        stroke-width: 0px;
      }
    </style>
  </defs>
  <path class="cls-1" d="M260.36,222.53c33.75,46.98-55.99,94.52-107.86,96.23-61.71,2.03-111.05-23.37-133.6-67.09-31.21-60.58,3.54-140.36,17.54-167.84,1.38-2.71,7.83-5.06,5.2-3.53-8.3,4.85-26.42,20.64-41.11,40.85-4.21,5.8,16.97-61.08,40.4-81.89,1.15-1.03,0,0,0,0,5.62-4.8,26.81-24.51,40.02-28.56,3.86-1.18,87.09-27.38,132.28,6.89,7.54,5.74-26.38,21.67-35.8,24.23.03-.41.03-.82.03-1.24,0-2.97-.47-5.86-1.35-8.54-1.32-4.21-3.65-7.98-6.68-11.07-5.06-5.15-12.1-8.33-19.87-8.33-1.38,0-2.74.09-4.03.29-3.74.53-7.21,1.8-10.3,3.65-8.13,4.89-13.57,13.81-13.57,23.99,0,.48,0,.95.03,1.42.05,1.16-.7,2.21-1.83,2.46-80.12,17.67-98.39,214.75,7.48,240.66,4.83,1.18,17.25,14.07,24.79,13.78,5.8-.24,20.46-11.99,23.65-12.87,14.07-3.88,33.49-12.5,43.13-18.01,19.53-11.18,38.88-49.08,41.47-45.47Z"/>
  <path class="cls-1" d="M80.33,103.97c-3.86,9.68,24.26,23.8,40.08,30.93,3.01,1.36,25.51-25.11,23-27.16-6.66-5.43-34.96-6.64-57.23-15.66-1.64-.66-2.69,3.98-5.84,11.89Z"/>
  <path class="cls-1" d="M224.55,103.12c3.86,9.68-24.26,23.8-40.08,30.93-3.01,1.36-25.51-25.11-23-27.16,6.66-5.43,34.96-6.64,57.23-15.66,1.64-.66,2.69,3.98,5.84,11.89Z"/>
  <path class="cls-1" d="M149.24,120.15l-17.87,19.19c-1.3,1.4-1.5,3.37-.49,4.95l6.85,10.72c.87,1.36,2.48,2.19,4.22,2.19h21.14c1.7,0,3.28-.8,4.17-2.1l6.79-10.05c1.03-1.53.92-3.47-.29-4.9l-16.92-19.85c-1.9-2.22-5.61-2.3-7.61-.15Z"/>
  <path class="cls-1" d="M121.37,265.42l25.6,20.81c3.15,2.56,8.46,2.46,11.45-.21l25.47-22.77c1.5-1.34,2.15-3.13,1.78-4.88l-18.53-86.71c-.62-2.89-3.84-5-7.63-5h-14.34c-3.8,0-7.04,2.14-7.63,5.04l-18.2,88.67c-.38,1.84.37,3.71,2.03,5.06Z"/>
  <path class="cls-1" d="M229.72,156.8c-1.12-4.65,4.66-23.7,5.4-23.54.3.07.41.84.45.94,14.34,38,53.32,61.09,48.33,98.64-3.05,22.95-47.19,58.95-39.69,42.68,25.4-55.09-1.34-63.89-14.5-118.72Z"/>
  <path class="cls-1" d="M248.17,116.96c-.1-1.25,8.3-9.84,9.06-10.04.31-.08-.02-.08,0,0,7.55,32.64,41.03,23.5,44.95,43.46,9.85,50.26-31.1,107.63-23.41,88.67,28.07-69.28-26.39-71.19-30.6-122.09Z"/>
  <path class="cls-1" d="M223.3,28.57c-5.39,26.35-60.26,37.12-62.86,53.18-.09.56,4.18-1.41,12.3-4.21,53.17-18.3,103.06,6.79,100-4.95-4.36-16.73-21.75-26.37-49.23-44.01"/>
  <path class="cls-1" d="M127.66,30.76l43.03.1v.06c-.03,12.08-9.69,21.92-21.58,21.89-5.28-.01-10.13-2-13.88-5.26-4.66-4.04-7.59-10.05-7.57-16.74v-.06Z"/>
  <path class="cls-1" d="M170.67,30.76c0,1.47-9.62,2.67-21.49,2.67s-21.49-1.19-21.49-2.67,9.62-2.88,21.49-2.88,21.49,1.4,21.49,2.88Z"/>
  <path class="cls-1" d="M238.72,249.25c12.62-12.85,15.88-37.86,3.12-56.8-1.68-2.49,22.14,31.8,24.12,41.43"/>
</svg>